<?xml version="1.0" encoding="UTF-8"?> <svg xmlns="http://www.w3.org/2000/svg" width="240" height="36" viewBox="0 0 240 36" fill="none"><rect x="0.5" y="0.5" width="239" height="35" rx="17.5" stroke="black"></rect><path d="M11.12 24V12.48H12.856L16.84 20.64L20.824 12.48H22.56V24H20.76V16.616L17.224 24H16.456L12.928 16.616V24H11.12ZM28.4635 24.24C27.5995 24.24 26.8448 24.0453 26.1995 23.656C25.5542 23.2667 25.0528 22.7307 24.6955 22.048C24.3435 21.36 24.1675 20.5707 24.1675 19.68C24.1675 18.7733 24.3488 17.9787 24.7115 17.296C25.0742 16.6133 25.5782 16.08 26.2235 15.696C26.8688 15.312 27.6155 15.12 28.4635 15.12C29.3328 15.12 30.0902 15.3147 30.7355 15.704C31.3808 16.0933 31.8822 16.632 32.2395 17.32C32.5968 18.0027 32.7755 18.7893 32.7755 19.68C32.7755 20.576 32.5942 21.368 32.2315 22.056C31.8742 22.7387 31.3728 23.2747 30.7275 23.664C30.0822 24.048 29.3275 24.24 28.4635 24.24ZM28.4635 22.432C29.2315 22.432 29.8022 22.176 30.1755 21.664C30.5488 21.152 30.7355 20.4907 30.7355 19.68C30.7355 18.8427 30.5462 18.176 30.1675 17.68C29.7888 17.1787 29.2208 16.928 28.4635 16.928C27.9462 16.928 27.5195 17.0453 27.1835 17.28C26.8528 17.5093 26.6075 17.832 26.4475 18.248C26.2875 18.6587 26.2075 19.136 26.2075 19.68C26.2075 20.5173 26.3968 21.1867 26.7755 21.688C27.1595 22.184 27.7222 22.432 28.4635 22.432ZM33.7381 25.92V22.488C34.2075 22.488 34.5408 22.328 34.7381 22.008C34.9355 21.688 35.0928 21.1333 35.2101 20.344C35.2848 19.8747 35.3461 19.3787 35.3941 18.856C35.4421 18.3333 35.4821 17.7813 35.5141 17.2C35.5515 16.6187 35.5835 16.0053 35.6101 15.36H42.0421V22.488H42.9141V25.92H41.0901V24H35.5541V25.92H33.7381ZM36.3221 22.488H40.1221V16.872H37.2981C37.2821 17.192 37.2635 17.52 37.2421 17.856C37.2208 18.1867 37.1968 18.5173 37.1701 18.848C37.1435 19.1787 37.1141 19.496 37.0821 19.8C37.0555 20.0987 37.0235 20.376 36.9861 20.632C36.9275 21.08 36.8555 21.448 36.7701 21.736C36.6848 22.024 36.5355 22.2747 36.3221 22.488ZM45.4948 27.84L47.1588 23.272L47.1908 24.616L43.4228 15.36H45.4308L48.1028 22.208H47.5908L50.1908 15.36H52.1188L47.3028 27.84H45.4948ZM52.0394 24V22.384C52.354 22.4427 52.5967 22.4373 52.7674 22.368C52.938 22.2933 53.066 22.1547 53.1514 21.952C53.2367 21.7493 53.3114 21.48 53.3754 21.144C53.4607 20.6693 53.5354 20.1227 53.5994 19.504C53.6687 18.8853 53.7274 18.224 53.7754 17.52C53.8287 16.816 53.8767 16.096 53.9194 15.36H60.2794V24H58.3594V17.168H55.6154C55.5887 17.5147 55.5567 17.904 55.5194 18.336C55.482 18.7627 55.442 19.1947 55.3994 19.632C55.3567 20.0693 55.3087 20.4853 55.2554 20.88C55.2074 21.2693 55.1567 21.6027 55.1034 21.88C54.9807 22.504 54.8047 22.9973 54.5754 23.36C54.3514 23.7227 54.0367 23.9547 53.6314 24.056C53.226 24.1627 52.6954 24.144 52.0394 24ZM62.3589 24L62.3509 15.36H64.2789V18.24H65.8309C66.0709 18.24 66.3402 18.2453 66.6389 18.256C66.9429 18.2667 67.1962 18.2907 67.3989 18.328C67.8842 18.4347 68.2975 18.6053 68.6389 18.84C68.9855 19.0747 69.2495 19.3813 69.4309 19.76C69.6122 20.1387 69.7029 20.5947 69.7029 21.128C69.7029 21.8907 69.5055 22.5013 69.1109 22.96C68.7215 23.4133 68.1722 23.7227 67.4629 23.888C67.2495 23.936 66.9882 23.968 66.6789 23.984C66.3749 23.9947 66.1002 24 65.8549 24H62.3589ZM64.2789 22.488H66.0229C66.1402 22.488 66.2709 22.4827 66.4149 22.472C66.5589 22.4613 66.6975 22.4373 66.8309 22.4C67.0709 22.336 67.2815 22.192 67.4629 21.968C67.6495 21.7387 67.7429 21.4587 67.7429 21.128C67.7429 20.7813 67.6495 20.496 67.4629 20.272C67.2762 20.048 67.0469 19.9013 66.7749 19.832C66.6522 19.8 66.5242 19.7787 66.3909 19.768C66.2575 19.7573 66.1349 19.752 66.0229 19.752H64.2789V22.488ZM74.3438 24V12.48H79.1038C79.2158 12.48 79.3598 12.4853 79.5358 12.496C79.7118 12.5013 79.8744 12.5173 80.0238 12.544C80.6904 12.6453 81.2398 12.8667 81.6718 13.208C82.1091 13.5493 82.4318 13.9813 82.6398 14.504C82.8531 15.0213 82.9598 15.5973 82.9598 16.232C82.9598 16.8613 82.8531 17.4373 82.6398 17.96C82.4264 18.4773 82.1011 18.9067 81.6638 19.248C81.2318 19.5893 80.6851 19.8107 80.0238 19.912C79.8744 19.9333 79.7091 19.9493 79.5278 19.96C79.3518 19.9707 79.2104 19.976 79.1038 19.976H76.2718V24H74.3438ZM76.2718 18.176H79.0238C79.1304 18.176 79.2504 18.1707 79.3838 18.16C79.5171 18.1493 79.6398 18.128 79.7518 18.096C80.0718 18.016 80.3224 17.8747 80.5038 17.672C80.6904 17.4693 80.8211 17.24 80.8958 16.984C80.9758 16.728 81.0158 16.4773 81.0158 16.232C81.0158 15.9867 80.9758 15.736 80.8958 15.48C80.8211 15.2187 80.6904 14.9867 80.5038 14.784C80.3224 14.5813 80.0718 14.44 79.7518 14.36C79.6398 14.328 79.5171 14.3093 79.3838 14.304C79.2504 14.2933 79.1304 14.288 79.0238 14.288H76.2718V18.176ZM88.1899 24.24C87.3152 24.24 86.5472 24.0507 85.8859 23.672C85.2245 23.2933 84.7072 22.768 84.3339 22.096C83.9659 21.424 83.7819 20.6507 83.7819 19.776C83.7819 18.832 83.9632 18.0133 84.3259 17.32C84.6885 16.6213 85.1925 16.08 85.8379 15.696C86.4832 15.312 87.2299 15.12 88.0779 15.12C88.9739 15.12 89.7339 15.3307 90.3579 15.752C90.9872 16.168 91.4539 16.7573 91.7579 17.52C92.0619 18.2827 92.1765 19.1813 92.1019 20.216H90.1899V19.512C90.1845 18.5733 90.0192 17.888 89.6939 17.456C89.3685 17.024 88.8565 16.808 88.1579 16.808C87.3685 16.808 86.7819 17.0533 86.3979 17.544C86.0139 18.0293 85.8219 18.7413 85.8219 19.68C85.8219 20.5547 86.0139 21.232 86.3979 21.712C86.7819 22.192 87.3419 22.432 88.0779 22.432C88.5525 22.432 88.9605 22.328 89.3019 22.12C89.6485 21.9067 89.9152 21.6 90.1019 21.2L92.0059 21.776C91.6752 22.5547 91.1632 23.16 90.4699 23.592C89.7819 24.024 89.0219 24.24 88.1899 24.24ZM85.2139 20.216V18.76H91.1579V20.216H85.2139ZM93.7269 24V15.36H95.4309V17.464L95.2229 17.192C95.3295 16.904 95.4709 16.6427 95.6469 16.408C95.8282 16.168 96.0442 15.9707 96.2949 15.816C96.5082 15.672 96.7429 15.56 96.9989 15.48C97.2602 15.3947 97.5269 15.344 97.7989 15.328C98.0709 15.3067 98.3349 15.3173 98.5909 15.36V17.16C98.3349 17.0853 98.0389 17.0613 97.7029 17.088C97.3722 17.1147 97.0735 17.208 96.8069 17.368C96.5402 17.512 96.3215 17.696 96.1509 17.92C95.9855 18.144 95.8629 18.4 95.7829 18.688C95.7029 18.9707 95.6629 19.2773 95.6629 19.608V24H93.7269ZM100.71 24V15.224C100.71 15.0053 100.718 14.7653 100.734 14.504C100.75 14.2373 100.795 13.9733 100.87 13.712C100.944 13.4507 101.08 13.2133 101.278 13C101.523 12.728 101.787 12.5413 102.07 12.44C102.358 12.3333 102.64 12.2747 102.918 12.264C103.195 12.248 103.438 12.24 103.646 12.24H104.726V13.808H103.726C103.358 13.808 103.083 13.9013 102.902 14.088C102.726 14.2693 102.638 14.5093 102.638 14.808V24H100.71ZM99.3175 16.872V15.36H104.726V16.872H99.3175ZM109.348 24.24C108.484 24.24 107.729 24.0453 107.084 23.656C106.439 23.2667 105.937 22.7307 105.58 22.048C105.228 21.36 105.052 20.5707 105.052 19.68C105.052 18.7733 105.233 17.9787 105.596 17.296C105.959 16.6133 106.463 16.08 107.108 15.696C107.753 15.312 108.5 15.12 109.348 15.12C110.217 15.12 110.975 15.3147 111.62 15.704C112.265 16.0933 112.767 16.632 113.124 17.32C113.481 18.0027 113.66 18.7893 113.66 19.68C113.66 20.576 113.479 21.368 113.116 22.056C112.759 22.7387 112.257 23.2747 111.612 23.664C110.967 24.048 110.212 24.24 109.348 24.24ZM109.348 22.432C110.116 22.432 110.687 22.176 111.06 21.664C111.433 21.152 111.62 20.4907 111.62 19.68C111.62 18.8427 111.431 18.176 111.052 17.68C110.673 17.1787 110.105 16.928 109.348 16.928C108.831 16.928 108.404 17.0453 108.068 17.28C107.737 17.5093 107.492 17.832 107.332 18.248C107.172 18.6587 107.092 19.136 107.092 19.68C107.092 20.5173 107.281 21.1867 107.66 21.688C108.044 22.184 108.607 22.432 109.348 22.432ZM115.263 24V15.36H116.967V17.464L116.759 17.192C116.865 16.904 117.007 16.6427 117.183 16.408C117.364 16.168 117.58 15.9707 117.831 15.816C118.044 15.672 118.279 15.56 118.535 15.48C118.796 15.3947 119.063 15.344 119.335 15.328C119.607 15.3067 119.871 15.3173 120.127 15.36V17.16C119.871 17.0853 119.575 17.0613 119.239 17.088C118.908 17.1147 118.609 17.208 118.343 17.368C118.076 17.512 117.857 17.696 117.687 17.92C117.521 18.144 117.399 18.4 117.319 18.688C117.239 18.9707 117.199 19.2773 117.199 19.608V24H115.263ZM131.869 24V18.752C131.869 18.16 131.722 17.6987 131.429 17.368C131.136 17.032 130.738 16.864 130.237 16.864C129.928 16.864 129.65 16.936 129.405 17.08C129.16 17.2187 128.965 17.4267 128.821 17.704C128.677 17.976 128.605 18.3013 128.605 18.68L127.749 18.176C127.744 17.5787 127.877 17.0533 128.149 16.6C128.426 16.1413 128.8 15.784 129.269 15.528C129.738 15.272 130.261 15.144 130.837 15.144C131.792 15.144 132.522 15.432 133.029 16.008C133.541 16.5787 133.797 17.3307 133.797 18.264V24H131.869ZM121.477 24V15.36H123.181V18.04H123.421V24H121.477ZM126.685 24V18.776C126.685 18.1733 126.538 17.704 126.245 17.368C125.952 17.032 125.552 16.864 125.045 16.864C124.554 16.864 124.16 17.032 123.861 17.368C123.568 17.704 123.421 18.1413 123.421 18.68L122.557 18.104C122.557 17.544 122.696 17.04 122.973 16.592C123.25 16.144 123.624 15.792 124.093 15.536C124.568 15.2747 125.098 15.144 125.685 15.144C126.33 15.144 126.869 15.2827 127.301 15.56C127.738 15.832 128.064 16.2053 128.277 16.68C128.496 17.1493 128.605 17.68 128.605 18.272V24H126.685ZM138.14 24.24C137.516 24.24 136.988 24.1227 136.556 23.888C136.124 23.648 135.796 23.3307 135.572 22.936C135.353 22.5413 135.244 22.1067 135.244 21.632C135.244 21.216 135.313 20.8427 135.452 20.512C135.59 20.176 135.804 19.888 136.092 19.648C136.38 19.4027 136.753 19.2027 137.212 19.048C137.558 18.936 137.964 18.8347 138.428 18.744C138.897 18.6533 139.404 18.5707 139.948 18.496C140.497 18.416 141.07 18.3307 141.668 18.24L140.98 18.632C140.985 18.0347 140.852 17.5947 140.58 17.312C140.308 17.0293 139.849 16.888 139.204 16.888C138.814 16.888 138.438 16.9787 138.076 17.16C137.713 17.3413 137.46 17.6533 137.316 18.096L135.556 17.544C135.769 16.8133 136.174 16.2267 136.772 15.784C137.374 15.3413 138.185 15.12 139.204 15.12C139.972 15.12 140.646 15.2453 141.228 15.496C141.814 15.7467 142.249 16.1573 142.532 16.728C142.686 17.032 142.78 17.344 142.812 17.664C142.844 17.9787 142.86 18.3227 142.86 18.696V24H141.172V22.128L141.452 22.432C141.062 23.056 140.606 23.5147 140.084 23.808C139.566 24.096 138.918 24.24 138.14 24.24ZM138.524 22.704C138.961 22.704 139.334 22.6267 139.644 22.472C139.953 22.3173 140.198 22.128 140.38 21.904C140.566 21.68 140.692 21.4693 140.756 21.272C140.857 21.0267 140.913 20.7467 140.924 20.432C140.94 20.112 140.948 19.8533 140.948 19.656L141.54 19.832C140.958 19.9227 140.46 20.0027 140.044 20.072C139.628 20.1413 139.27 20.208 138.972 20.272C138.673 20.3307 138.409 20.3973 138.18 20.472C137.956 20.552 137.766 20.6453 137.612 20.752C137.457 20.8587 137.337 20.9813 137.252 21.12C137.172 21.2587 137.132 21.4213 137.132 21.608C137.132 21.8213 137.185 22.0107 137.292 22.176C137.398 22.336 137.553 22.464 137.756 22.56C137.964 22.656 138.22 22.704 138.524 22.704ZM150.759 24V19.84C150.759 19.568 150.74 19.2667 150.703 18.936C150.665 18.6053 150.577 18.288 150.439 17.984C150.305 17.6747 150.103 17.4213 149.831 17.224C149.564 17.0267 149.201 16.928 148.743 16.928C148.497 16.928 148.255 16.968 148.015 17.048C147.775 17.128 147.556 17.2667 147.359 17.464C147.167 17.656 147.012 17.9227 146.895 18.264C146.777 18.6 146.719 19.032 146.719 19.56L145.575 19.072C145.575 18.336 145.716 17.6693 145.999 17.072C146.287 16.4747 146.708 16 147.263 15.648C147.817 15.2907 148.5 15.112 149.311 15.112C149.951 15.112 150.479 15.2187 150.895 15.432C151.311 15.6453 151.641 15.9173 151.887 16.248C152.132 16.5787 152.313 16.9307 152.431 17.304C152.548 17.6773 152.623 18.032 152.655 18.368C152.692 18.6987 152.711 18.968 152.711 19.176V24H150.759ZM144.767 24V15.36H146.487V18.04H146.719V24H144.767ZM158.25 24.24C157.359 24.24 156.599 24.0427 155.97 23.648C155.34 23.248 154.858 22.704 154.522 22.016C154.191 21.328 154.023 20.5493 154.018 19.68C154.023 18.7947 154.196 18.0107 154.538 17.328C154.884 16.64 155.375 16.1013 156.01 15.712C156.644 15.3173 157.399 15.12 158.274 15.12C159.255 15.12 160.084 15.368 160.762 15.864C161.444 16.3547 161.89 17.0267 162.098 17.88L160.178 18.4C160.028 17.936 159.78 17.576 159.434 17.32C159.087 17.0587 158.692 16.928 158.25 16.928C157.748 16.928 157.335 17.048 157.01 17.288C156.684 17.5227 156.444 17.848 156.29 18.264C156.135 18.68 156.058 19.152 156.058 19.68C156.058 20.5013 156.242 21.1653 156.61 21.672C156.978 22.1787 157.524 22.432 158.25 22.432C158.762 22.432 159.164 22.3147 159.458 22.08C159.756 21.8453 159.98 21.5067 160.13 21.064L162.098 21.504C161.831 22.384 161.364 23.0613 160.698 23.536C160.031 24.0053 159.215 24.24 158.25 24.24ZM167.234 24.24C166.36 24.24 165.592 24.0507 164.93 23.672C164.269 23.2933 163.752 22.768 163.378 22.096C163.01 21.424 162.826 20.6507 162.826 19.776C162.826 18.832 163.008 18.0133 163.37 17.32C163.733 16.6213 164.237 16.08 164.882 15.696C165.528 15.312 166.274 15.12 167.122 15.12C168.018 15.12 168.778 15.3307 169.402 15.752C170.032 16.168 170.498 16.7573 170.802 17.52C171.106 18.2827 171.221 19.1813 171.146 20.216H169.234V19.512C169.229 18.5733 169.064 17.888 168.738 17.456C168.413 17.024 167.901 16.808 167.202 16.808C166.413 16.808 165.826 17.0533 165.442 17.544C165.058 18.0293 164.866 18.7413 164.866 19.68C164.866 20.5547 165.058 21.232 165.442 21.712C165.826 22.192 166.386 22.432 167.122 22.432C167.597 22.432 168.005 22.328 168.346 22.12C168.693 21.9067 168.96 21.6 169.146 21.2L171.05 21.776C170.72 22.5547 170.208 23.16 169.514 23.592C168.826 24.024 168.066 24.24 167.234 24.24ZM164.258 20.216V18.76H170.202V20.216H164.258ZM175.814 24V12.48H180.574C180.686 12.48 180.83 12.4853 181.006 12.496C181.182 12.5013 181.345 12.5173 181.494 12.544C182.161 12.6453 182.71 12.8667 183.142 13.208C183.58 13.5493 183.902 13.9813 184.11 14.504C184.324 15.0213 184.43 15.5973 184.43 16.232C184.43 17.1707 184.193 17.9787 183.718 18.656C183.244 19.328 182.516 19.744 181.534 19.904L180.71 19.976H177.742V24H175.814ZM182.43 24L180.158 19.312L182.118 18.88L184.614 24H182.43ZM177.742 18.176H180.494C180.601 18.176 180.721 18.1707 180.854 18.16C180.988 18.1493 181.11 18.128 181.222 18.096C181.542 18.016 181.793 17.8747 181.974 17.672C182.161 17.4693 182.292 17.24 182.366 16.984C182.446 16.728 182.486 16.4773 182.486 16.232C182.486 15.9867 182.446 15.736 182.366 15.48C182.292 15.2187 182.161 14.9867 181.974 14.784C181.793 14.5813 181.542 14.44 181.222 14.36C181.11 14.328 180.988 14.3093 180.854 14.304C180.721 14.2933 180.601 14.288 180.494 14.288H177.742V18.176ZM190.145 24.24C189.27 24.24 188.502 24.0507 187.841 23.672C187.18 23.2933 186.662 22.768 186.289 22.096C185.921 21.424 185.737 20.6507 185.737 19.776C185.737 18.832 185.918 18.0133 186.281 17.32C186.644 16.6213 187.148 16.08 187.793 15.696C188.438 15.312 189.185 15.12 190.033 15.12C190.929 15.12 191.689 15.3307 192.313 15.752C192.942 16.168 193.409 16.7573 193.713 17.52C194.017 18.2827 194.132 19.1813 194.057 20.216H192.145V19.512C192.14 18.5733 191.974 17.888 191.649 17.456C191.324 17.024 190.812 16.808 190.113 16.808C189.324 16.808 188.737 17.0533 188.353 17.544C187.969 18.0293 187.777 18.7413 187.777 19.68C187.777 20.5547 187.969 21.232 188.353 21.712C188.737 22.192 189.297 22.432 190.033 22.432C190.508 22.432 190.916 22.328 191.257 22.12C191.604 21.9067 191.87 21.6 192.057 21.2L193.961 21.776C193.63 22.5547 193.118 23.16 192.425 23.592C191.737 24.024 190.977 24.24 190.145 24.24ZM187.169 20.216V18.76H193.113V20.216H187.169ZM197.705 24L194.569 15.36H196.497L198.673 21.624L200.841 15.36H202.777L199.641 24H197.705ZM204.213 14.048V12.28H206.141V14.048H204.213ZM204.213 24V15.36H206.141V24H204.213ZM212.306 24.24C211.431 24.24 210.663 24.0507 210.002 23.672C209.34 23.2933 208.823 22.768 208.45 22.096C208.082 21.424 207.898 20.6507 207.898 19.776C207.898 18.832 208.079 18.0133 208.442 17.32C208.804 16.6213 209.308 16.08 209.954 15.696C210.599 15.312 211.346 15.12 212.194 15.12C213.09 15.12 213.85 15.3307 214.474 15.752C215.103 16.168 215.57 16.7573 215.874 17.52C216.178 18.2827 216.292 19.1813 216.218 20.216H214.306V19.512C214.3 18.5733 214.135 17.888 213.81 17.456C213.484 17.024 212.972 16.808 212.274 16.808C211.484 16.808 210.898 17.0533 210.514 17.544C210.13 18.0293 209.938 18.7413 209.938 19.68C209.938 20.5547 210.13 21.232 210.514 21.712C210.898 22.192 211.458 22.432 212.194 22.432C212.668 22.432 213.076 22.328 213.418 22.12C213.764 21.9067 214.031 21.6 214.218 21.2L216.122 21.776C215.791 22.5547 215.279 23.16 214.586 23.592C213.898 24.024 213.138 24.24 212.306 24.24ZM209.33 20.216V18.76H215.274V20.216H209.33ZM219.37 24L216.73 15.344L218.618 15.36L220.306 20.904L222.018 15.36H223.642L225.346 20.904L227.042 15.36H228.93L226.29 24H224.786L222.826 18.056L220.874 24H219.37Z" fill="#151515"></path></svg> 