<?xml version="1.0" encoding="UTF-8"?> <svg xmlns="http://www.w3.org/2000/svg" width="26" height="26" viewBox="0 0 26 26" fill="none"><path d="M14.0231 5.08182L12.9536 0L11.8842 5.08182C11.5325 6.75334 10.7021 8.28645 9.49427 9.49427C8.28645 10.7021 6.75334 11.5325 5.08182 11.8842L0 12.9536L5.08182 14.0231C6.75328 14.3749 8.28632 15.2053 9.49412 16.4131C10.7019 17.6209 11.5323 19.1539 11.8842 20.8254L12.9536 25.9072L14.0231 20.8254C14.3748 19.1539 15.2051 17.6208 16.413 16.413C17.6208 15.2051 19.1539 14.3748 20.8254 14.0231L25.9072 12.9536L20.8254 11.8842C19.1539 11.5325 17.6208 10.7021 16.413 9.49427C15.2051 8.28645 14.3748 6.75334 14.0231 5.08182Z" fill="#FFB8E2"></path></svg> 